<svg id="visual" viewBox="0 0 900 600" width="900" height="600" xmlns="http://www.w3.org/2000/svg" xmlns:xlink="http://www.w3.org/1999/xlink" version="1.1"><g stroke-width="1" stroke-linejoin="bevel"><path d="M436 275L534 272L432 232Z" fill="#1d4e6b" stroke="#1d4e6b"></path><path d="M534 272L536 172L432 232Z" fill="#205a7a" stroke="#205a7a"></path><path d="M536 172L481 99L432 232Z" fill="#112e42" stroke="#112e42"></path><path d="M325 320L424 391L436 275Z" fill="#15384f" stroke="#15384f"></path><path d="M436 275L424 391L534 272Z" fill="#246688" stroke="#246688"></path><path d="M533 412L639 293L534 272Z" fill="#00101c" stroke="#00101c"></path><path d="M534 272L639 195L536 172Z" fill="#205a7a" stroke="#205a7a"></path><path d="M536 172L572 105L481 99Z" fill="#297ea6" stroke="#297ea6"></path><path d="M639 293L639 195L534 272Z" fill="#205a7a" stroke="#205a7a"></path><path d="M639 195L572 105L536 172Z" fill="#1d4e6b" stroke="#1d4e6b"></path><path d="M424 391L533 412L534 272Z" fill="#297ea6" stroke="#297ea6"></path><path d="M298 225L325 320L432 232Z" fill="#277297" stroke="#277297"></path><path d="M432 232L325 320L436 275Z" fill="#15384f" stroke="#15384f"></path><path d="M368 68L298 225L432 232Z" fill="#0c2435" stroke="#0c2435"></path><path d="M438 0L368 68L481 99Z" fill="#1d4e6b" stroke="#1d4e6b"></path><path d="M481 99L368 68L432 232Z" fill="#297ea6" stroke="#297ea6"></path><path d="M223 272L307 373L325 320Z" fill="#00101c" stroke="#00101c"></path><path d="M325 320L307 373L424 391Z" fill="#081a28" stroke="#081a28"></path><path d="M424 391L420 475L533 412Z" fill="#297ea6" stroke="#297ea6"></path><path d="M573 503L618 431L533 412Z" fill="#112e42" stroke="#112e42"></path><path d="M533 412L618 431L639 293Z" fill="#0c2435" stroke="#0c2435"></path><path d="M324 473L420 475L424 391Z" fill="#246688" stroke="#246688"></path><path d="M732 327L719 228L639 293Z" fill="#112e42" stroke="#112e42"></path><path d="M639 293L719 228L639 195Z" fill="#19435d" stroke="#19435d"></path><path d="M686 0L572 0L572 105Z" fill="#19435d" stroke="#19435d"></path><path d="M572 0L508 0L572 105Z" fill="#277297" stroke="#277297"></path><path d="M572 105L508 0L481 99Z" fill="#297ea6" stroke="#297ea6"></path><path d="M508 0L438 0L481 99Z" fill="#277297" stroke="#277297"></path><path d="M729 388L732 327L639 293Z" fill="#246688" stroke="#246688"></path><path d="M298 225L223 272L325 320Z" fill="#277297" stroke="#277297"></path><path d="M165 199L223 272L298 225Z" fill="#0c2435" stroke="#0c2435"></path><path d="M718 70L572 105L639 195Z" fill="#19435d" stroke="#19435d"></path><path d="M526 527L573 503L533 412Z" fill="#246688" stroke="#246688"></path><path d="M618 431L729 388L639 293Z" fill="#246688" stroke="#246688"></path><path d="M321 0L266 81L368 68Z" fill="#205a7a" stroke="#205a7a"></path><path d="M368 68L266 81L298 225Z" fill="#297ea6" stroke="#297ea6"></path><path d="M307 373L324 473L424 391Z" fill="#277297" stroke="#277297"></path><path d="M420 475L526 527L533 412Z" fill="#00101c" stroke="#00101c"></path><path d="M194 402L324 473L307 373Z" fill="#205a7a" stroke="#205a7a"></path><path d="M484 600L526 527L420 475Z" fill="#112e42" stroke="#112e42"></path><path d="M717 495L729 388L618 431Z" fill="#112e42" stroke="#112e42"></path><path d="M819 164L718 70L719 228Z" fill="#112e42" stroke="#112e42"></path><path d="M719 228L718 70L639 195Z" fill="#297ea6" stroke="#297ea6"></path><path d="M438 0L321 0L368 68Z" fill="#00101c" stroke="#00101c"></path><path d="M718 70L686 0L572 105Z" fill="#112e42" stroke="#112e42"></path><path d="M321 0L217 69L266 81Z" fill="#1d4e6b" stroke="#1d4e6b"></path><path d="M266 81L165 199L298 225Z" fill="#00101c" stroke="#00101c"></path><path d="M217 69L165 199L266 81Z" fill="#246688" stroke="#246688"></path><path d="M223 272L194 402L307 373Z" fill="#0c2435" stroke="#0c2435"></path><path d="M139 412L194 402L106 334Z" fill="#1d4e6b" stroke="#1d4e6b"></path><path d="M729 388L810 326L732 327Z" fill="#19435d" stroke="#19435d"></path><path d="M732 327L810 326L719 228Z" fill="#0c2435" stroke="#0c2435"></path><path d="M573 503L717 495L618 431Z" fill="#246688" stroke="#246688"></path><path d="M729 388L780 431L810 326Z" fill="#15384f" stroke="#15384f"></path><path d="M675 600L717 495L573 503Z" fill="#19435d" stroke="#19435d"></path><path d="M810 326L819 164L719 228Z" fill="#112e42" stroke="#112e42"></path><path d="M718 70L798 68L686 0Z" fill="#297ea6" stroke="#297ea6"></path><path d="M717 495L780 431L729 388Z" fill="#246688" stroke="#246688"></path><path d="M368 600L484 600L420 475Z" fill="#1d4e6b" stroke="#1d4e6b"></path><path d="M526 527L583 600L573 503Z" fill="#277297" stroke="#277297"></path><path d="M368 600L420 475L324 473Z" fill="#1d4e6b" stroke="#1d4e6b"></path><path d="M819 164L798 68L718 70Z" fill="#19435d" stroke="#19435d"></path><path d="M484 600L583 600L526 527Z" fill="#277297" stroke="#277297"></path><path d="M311 600L368 600L324 473Z" fill="#19435d" stroke="#19435d"></path><path d="M761 600L787 480L717 495Z" fill="#205a7a" stroke="#205a7a"></path><path d="M717 495L787 480L780 431Z" fill="#00101c" stroke="#00101c"></path><path d="M900 435L900 333L810 326Z" fill="#297ea6" stroke="#297ea6"></path><path d="M106 334L194 402L223 272Z" fill="#00101c" stroke="#00101c"></path><path d="M167 493L311 600L324 473Z" fill="#081a28" stroke="#081a28"></path><path d="M165 199L106 334L223 272Z" fill="#297ea6" stroke="#297ea6"></path><path d="M91 167L106 334L165 199Z" fill="#00101c" stroke="#00101c"></path><path d="M167 493L324 473L194 402Z" fill="#081a28" stroke="#081a28"></path><path d="M168 0L127 83L217 69Z" fill="#246688" stroke="#246688"></path><path d="M217 69L127 83L165 199Z" fill="#277297" stroke="#277297"></path><path d="M583 600L675 600L573 503Z" fill="#1d4e6b" stroke="#1d4e6b"></path><path d="M71 480L167 493L139 412Z" fill="#00101c" stroke="#00101c"></path><path d="M139 412L167 493L194 402Z" fill="#00101c" stroke="#00101c"></path><path d="M127 83L91 167L165 199Z" fill="#1d4e6b" stroke="#1d4e6b"></path><path d="M321 0L168 0L217 69Z" fill="#00101c" stroke="#00101c"></path><path d="M810 326L900 233L819 164Z" fill="#246688" stroke="#246688"></path><path d="M900 0L832 0L798 68Z" fill="#19435d" stroke="#19435d"></path><path d="M900 333L900 233L810 326Z" fill="#246688" stroke="#246688"></path><path d="M900 435L810 326L780 431Z" fill="#0c2435" stroke="#0c2435"></path><path d="M900 137L798 68L819 164Z" fill="#00101c" stroke="#00101c"></path><path d="M798 68L832 0L686 0Z" fill="#081a28" stroke="#081a28"></path><path d="M900 233L900 137L819 164Z" fill="#0c2435" stroke="#0c2435"></path><path d="M675 600L761 600L717 495Z" fill="#112e42" stroke="#112e42"></path><path d="M787 480L900 435L780 431Z" fill="#00101c" stroke="#00101c"></path><path d="M900 499L900 435L787 480Z" fill="#081a28" stroke="#081a28"></path><path d="M0 421L139 412L106 334Z" fill="#0c2435" stroke="#0c2435"></path><path d="M0 421L71 480L139 412Z" fill="#246688" stroke="#246688"></path><path d="M167 493L163 600L311 600Z" fill="#246688" stroke="#246688"></path><path d="M100 600L163 600L167 493Z" fill="#0c2435" stroke="#0c2435"></path><path d="M127 83L0 122L91 167Z" fill="#081a28" stroke="#081a28"></path><path d="M91 167L0 213L106 334Z" fill="#081a28" stroke="#081a28"></path><path d="M168 0L74 0L127 83Z" fill="#112e42" stroke="#112e42"></path><path d="M900 137L900 0L798 68Z" fill="#00101c" stroke="#00101c"></path><path d="M900 600L900 499L787 480Z" fill="#112e42" stroke="#112e42"></path><path d="M0 122L0 213L91 167Z" fill="#297ea6" stroke="#297ea6"></path><path d="M0 213L0 295L106 334Z" fill="#0c2435" stroke="#0c2435"></path><path d="M74 0L0 122L127 83Z" fill="#246688" stroke="#246688"></path><path d="M0 295L0 421L106 334Z" fill="#277297" stroke="#277297"></path><path d="M71 480L100 600L167 493Z" fill="#246688" stroke="#246688"></path><path d="M0 519L100 600L71 480Z" fill="#00101c" stroke="#00101c"></path><path d="M761 600L900 600L787 480Z" fill="#0c2435" stroke="#0c2435"></path><path d="M74 0L0 0L0 122Z" fill="#00101c" stroke="#00101c"></path><path d="M0 421L0 519L71 480Z" fill="#205a7a" stroke="#205a7a"></path><path d="M0 519L0 600L100 600Z" fill="#15384f" stroke="#15384f"></path></g></svg>